<?xml version="1.0" standalone="no"?>
<!DOCTYPE svg PUBLIC "-//W3C//DTD SVG 20010904//EN"
 "http://www.w3.org/TR/2001/REC-SVG-20010904/DTD/svg10.dtd">
<svg version="1.0" xmlns="http://www.w3.org/2000/svg"
 width="768.000000pt" height="768.000000pt" viewBox="0 0 768.000000 768.000000"
 preserveAspectRatio="xMidYMid meet">
<metadata>
Created by potrace 1.16, written by Peter Selinger 2001-2019
</metadata>
<g transform="translate(0.000000,768.000000) scale(0.100000,-0.100000)"
fill="#000000" stroke="none">
<path d="M3505 5544 c-501 -27 -1053 -127 -1476 -267 -946 -312 -1518 -860
-1485 -1422 7 -132 36 -238 96 -360 209 -421 743 -787 1481 -1015 316 -97 741
-179 1109 -214 717 -69 1441 -22 2085 134 660 159 1176 414 1511 745 230 227
346 452 361 700 10 187 -37 363 -145 534 -200 317 -552 581 -1053 792 -133 56
-497 179 -530 179 -11 0 -45 9 -77 19 -145 49 -579 124 -902 156 -149 15 -808
28 -975 19z m800 -335 c227 -17 470 -53 713 -106 67 -14 122 -29 122 -33 0 -3
-80 -83 -177 -176 -98 -93 -223 -212 -278 -265 -55 -53 -149 -143 -210 -201
-60 -57 -159 -152 -220 -210 -60 -58 -360 -343 -665 -634 -533 -506 -635 -604
-835 -798 -106 -102 -75 -100 -323 -25 -198 59 -358 122 -516 201 -395 198
-646 430 -746 691 -25 64 -33 105 -41 201 -5 76 -5 131 1 151 5 16 19 59 30
96 44 140 162 307 305 432 570 495 1696 763 2840 676z"/>
</g>
</svg>
