<?xml version="1.0" standalone="no"?>
<!DOCTYPE svg PUBLIC "-//W3C//DTD SVG 20010904//EN"
 "http://www.w3.org/TR/2001/REC-SVG-20010904/DTD/svg10.dtd">
<svg version="1.0" xmlns="http://www.w3.org/2000/svg"
 width="640.000000pt" height="640.000000pt" viewBox="0 0 640.000000 640.000000"
 preserveAspectRatio="xMidYMid meet">
<metadata>
Created by potrace 1.15, written by Peter Selinger 2001-2017
</metadata>
<g transform="translate(0.000000,640.000000) scale(0.100000,-0.100000)"
fill="#000000" stroke="none">
<path d="M4622 5046 c-11 -14 -32 -55 -47 -91 l-28 -66 -15 43 c-8 24 -23 56
-34 71 -26 36 -40 25 -68 -51 -35 -93 -118 -247 -156 -288 -21 -23 -33 -31
-28 -19 16 45 17 85 1 85 -23 0 -139 -104 -213 -192 -95 -112 -144 -190 -222
-350 -72 -147 -141 -248 -267 -388 -37 -41 -92 -111 -123 -155 -75 -108 -192
-225 -224 -225 -13 0 -75 7 -138 16 -148 21 -197 15 -301 -34 -46 -22 -129
-54 -185 -71 -102 -32 -164 -63 -164 -80 0 -6 19 -15 43 -22 23 -6 47 -15 53
-20 7 -6 61 -18 121 -28 60 -10 121 -24 134 -31 36 -19 159 -111 159 -119 0
-14 -72 -127 -125 -196 -30 -38 -122 -142 -205 -230 -84 -88 -176 -194 -205
-235 -59 -83 -110 -130 -230 -210 -44 -29 -116 -81 -160 -115 -44 -34 -126
-94 -182 -134 -57 -40 -103 -77 -103 -82 0 -25 62 1 165 70 32 22 61 38 63 36
14 -13 -254 -198 -393 -271 -111 -58 -147 -83 -140 -95 10 -15 72 -10 125 10
l51 20 -47 -42 c-26 -23 -64 -54 -86 -69 -21 -16 -38 -33 -38 -38 0 -16 45
-22 85 -11 29 8 36 8 27 -1 -35 -35 4 -36 78 -2 l55 25 -47 -48 c-27 -27 -48
-54 -48 -61 0 -21 41 -13 99 19 l56 31 -29 -31 c-42 -44 -25 -50 35 -13 27 18
52 32 53 32 1 0 1 -14 -2 -30 -5 -35 11 -39 57 -16 27 15 28 14 23 -10 -7 -38
12 -29 94 42 60 53 78 63 89 54 8 -6 19 -9 24 -6 6 4 19 1 29 -5 28 -18 48 -6
86 53 59 93 64 95 171 73 24 -5 53 5 149 54 65 33 138 78 161 100 24 22 54 42
67 45 13 3 37 8 53 11 19 4 52 29 90 70 36 39 72 67 90 71 17 4 53 31 80 59
28 28 71 63 96 77 63 37 225 192 309 298 74 93 83 100 133 100 42 0 95 33 108
68 6 15 22 39 35 53 14 15 32 52 40 85 8 33 22 79 31 103 l16 43 46 -6 c29 -4
66 -20 101 -44 30 -20 87 -53 125 -73 39 -20 105 -55 149 -79 95 -51 180 -64
235 -35 19 9 61 21 95 25 53 8 65 14 91 45 17 20 51 59 77 86 41 42 49 56 57
110 6 33 14 66 19 72 18 23 22 102 9 167 -12 54 -18 66 -38 71 -13 4 -125 8
-249 9 -277 2 -291 4 -323 52 -25 36 -25 37 -6 55 11 10 48 32 81 48 55 27 63
35 79 79 10 27 31 63 47 80 37 39 52 68 52 101 0 36 14 60 81 135 34 38 66 87
77 118 21 56 47 93 119 174 33 37 43 57 43 83 0 48 14 78 56 125 35 39 36 43
30 94 -5 50 -4 55 19 70 20 13 25 25 25 56 0 36 -4 42 -35 57 -19 9 -35 23
-35 30 0 7 25 30 56 50 l56 37 -6 45 c-3 25 -13 55 -21 67 -13 20 -12 25 11
55 22 31 23 35 8 46 -14 11 -14 15 10 46 32 42 32 47 0 47 -29 0 -59 -14 -93
-44 l-25 -21 22 38 c25 43 29 82 8 74 -11 -4 -11 2 1 36 14 41 11 87 -6 87 -5
0 -48 -52 -96 -115 -47 -63 -88 -115 -91 -115 -2 0 7 22 21 50 28 56 31 85 11
150 -16 54 -43 64 -74 26z"/>
</g>
</svg>
