<?xml version="1.0" standalone="no"?>
<!DOCTYPE svg PUBLIC "-//W3C//DTD SVG 20010904//EN"
 "http://www.w3.org/TR/2001/REC-SVG-20010904/DTD/svg10.dtd">
<svg version="1.0" xmlns="http://www.w3.org/2000/svg"
 width="768.000000pt" height="768.000000pt" viewBox="0 0 768.000000 768.000000"
 preserveAspectRatio="xMidYMid meet">
<metadata>
Created by potrace 1.16, written by Peter Selinger 2001-2019
</metadata>
<g transform="translate(0.000000,768.000000) scale(0.100000,-0.100000)"
fill="#000000" stroke="none">
<path d="M4155 6548 c-67 -82 -723 -747 -2119 -2152 -831 -835 -1511 -1526
-1511 -1535 0 -15 125 -16 1451 -19 l1452 -2 7 -23 c4 -12 10 -406 12 -875 4
-703 7 -854 19 -859 8 -3 62 46 136 124 251 263 549 564 2023 2047 831 835
1510 1526 1510 1535 0 15 -128 16 -1455 21 -800 3 -1456 7 -1457 8 -2 1 -4
397 -5 879 -3 800 -4 878 -19 881 -9 2 -29 -12 -44 -30z m2964 -1763 c-1 -5
-680 -692 -1508 -1525 -1469 -1478 -1769 -1781 -2018 -2042 -66 -70 -124 -124
-127 -121 -3 4 -5 79 -4 167 l2 161 3 -152 c2 -84 7 -153 11 -153 4 0 115 111
246 248 307 317 888 904 2268 2289 609 612 1108 1117 1108 1123 0 6 -70 11
-182 13 l-183 3 193 -1 c122 0 192 -4 191 -10z m-5932 -1273 c-350 -350 -637
-640 -637 -645 0 -4 80 -8 178 -9 l177 -2 -175 -3 c-96 -2 -181 -1 -189 2 -10
4 185 206 629 650 355 355 647 645 650 645 3 0 -282 -287 -633 -638z"/>
</g>
</svg>
