<?xml version="1.0" standalone="no"?>
<!DOCTYPE svg PUBLIC "-//W3C//DTD SVG 20010904//EN"
 "http://www.w3.org/TR/2001/REC-SVG-20010904/DTD/svg10.dtd">
<svg version="1.0" xmlns="http://www.w3.org/2000/svg"
 width="512.000000pt" height="512.000000pt" viewBox="0 0 512.000000 512.000000"
 preserveAspectRatio="xMidYMid meet">
<metadata>
Created by potrace 1.15, written by Peter Selinger 2001-2017
</metadata>
<g transform="translate(0.000000,512.000000) scale(0.100000,-0.100000)"
fill="#000000" stroke="none">
<path d="M3652 4646 c-11 -14 -32 -55 -47 -91 l-28 -66 -15 43 c-8 24 -23 56
-34 71 -26 36 -40 25 -68 -51 -35 -93 -118 -247 -156 -288 -21 -23 -33 -31
-28 -19 16 45 17 85 1 85 -23 0 -139 -105 -213 -192 -65 -77 -77 -87 -89 -69
-3 6 -18 16 -33 24 -15 7 -49 26 -77 42 -27 16 -64 36 -82 46 -17 10 -50 29
-72 43 -22 15 -43 26 -45 26 -3 0 -27 14 -55 31 l-51 32 -51 -32 c-28 -17 -52
-31 -55 -31 -3 0 -28 -15 -57 -33 -29 -18 -68 -41 -87 -50 -19 -10 -53 -29
-75 -43 -22 -13 -49 -29 -60 -34 -11 -6 -38 -21 -60 -35 -22 -14 -49 -30 -60
-36 -11 -5 -29 -15 -40 -22 -11 -7 -51 -30 -90 -52 -38 -22 -78 -44 -87 -50
-9 -5 -63 -37 -120 -70 -56 -33 -112 -65 -123 -72 -11 -7 -27 -16 -35 -20 -8
-4 -91 -51 -185 -106 -93 -54 -192 -112 -220 -127 -27 -15 -65 -36 -82 -46
l-33 -19 0 -877 c0 -696 3 -878 13 -878 17 -1 -25 -35 -180 -147 -73 -52 -133
-99 -133 -104 0 -25 62 1 165 70 32 22 61 38 63 36 14 -13 -254 -198 -393
-271 -113 -60 -147 -83 -139 -96 7 -10 73 -6 124 7 22 6 20 2 -16 -32 -22 -21
-56 -50 -75 -65 -29 -23 -32 -29 -19 -38 9 -6 33 -8 57 -5 36 5 42 4 37 -9 -8
-22 21 -20 75 4 24 11 45 19 47 17 2 -2 -14 -21 -36 -42 -22 -22 -40 -45 -40
-52 0 -21 41 -15 89 12 54 31 60 31 31 0 -36 -38 -16 -42 41 -7 27 18 52 32
53 32 1 0 0 -14 -2 -31 -4 -29 -3 -31 19 -27 13 3 32 9 41 13 14 5 18 2 18
-14 0 -12 5 -21 10 -21 6 0 44 30 86 66 60 53 78 63 89 54 8 -6 19 -9 24 -6 6
4 19 1 29 -5 28 -18 48 -6 86 53 59 93 64 95 171 73 24 -5 53 5 150 55 66 33
131 72 145 85 l25 24 154 -89 c84 -50 155 -90 158 -90 2 0 27 -15 56 -33 29
-18 59 -36 67 -40 8 -4 31 -17 50 -28 32 -20 58 -35 157 -90 17 -10 50 -29 72
-43 22 -15 43 -26 45 -26 3 0 27 -14 55 -31 l51 -32 51 32 c28 17 52 31 55 31
2 0 23 12 45 26 23 14 62 37 87 51 83 47 116 65 147 84 17 11 37 22 45 26 8 4
38 22 67 40 29 18 54 33 56 33 3 0 92 51 198 113 107 62 201 116 209 120 8 4
22 11 30 17 18 12 344 201 415 240 27 15 65 36 82 46 l33 19 0 876 0 876 -22
11 c-25 12 -97 53 -200 113 -61 36 -67 42 -63 67 2 15 7 43 10 63 3 23 21 54
47 83 39 46 40 49 34 100 -5 50 -4 55 19 70 20 13 25 25 25 56 0 36 -4 42 -35
57 -19 9 -35 23 -35 30 0 7 25 30 56 50 l56 37 -6 45 c-3 25 -13 55 -21 67
-13 20 -12 25 11 55 22 31 23 35 8 46 -14 11 -14 15 10 46 14 19 26 37 26 40
0 16 -61 5 -94 -18 -38 -26 -46 -22 -21 11 17 22 20 61 5 66 -6 2 -6 16 1 41
10 38 5 77 -11 77 -5 0 -46 -50 -91 -110 -45 -61 -84 -108 -86 -106 -3 2 5 22
16 45 24 47 26 79 7 141 -16 54 -43 64 -74 26z m-975 -833 c128 -75 151 -92
137 -101 -5 -4 -21 -25 -34 -47 -35 -59 -129 -180 -205 -265 -37 -41 -92 -111
-123 -155 -75 -108 -192 -225 -224 -225 -13 0 -75 7 -138 16 -148 21 -197 15
-301 -34 -46 -22 -129 -54 -185 -71 -102 -32 -164 -63 -164 -80 0 -6 19 -15
43 -22 23 -6 47 -15 53 -20 7 -6 61 -18 121 -28 60 -10 121 -24 134 -31 36
-19 159 -111 159 -119 0 -14 -72 -127 -125 -196 -30 -38 -120 -140 -201 -225
-80 -85 -159 -172 -174 -193 l-28 -38 -6 63 c-6 63 0 1054 7 1138 4 41 8 47
43 65 21 11 41 23 44 26 3 3 30 19 60 35 30 16 78 43 107 61 29 18 56 33 61
33 4 0 13 5 20 12 7 7 38 27 70 44 31 18 91 52 132 75 41 23 85 47 97 53 13 6
23 14 23 19 0 4 4 7 10 7 5 0 33 14 62 31 29 18 68 40 86 50 17 11 47 27 65
38 17 10 70 41 117 67 47 27 94 54 105 60 34 20 51 16 152 -43z m933 -545 c0
-4 9 -8 20 -8 11 0 20 -3 20 -8 0 -4 10 -12 22 -17 25 -12 24 -5 34 -297 l7
-208 -194 1 c-243 0 -260 3 -292 51 -25 36 -25 37 -6 55 11 10 48 32 81 48 55
27 63 35 79 79 10 27 31 63 47 80 37 39 52 68 52 101 0 33 21 73 54 104 14 14
26 30 26 38 0 10 5 10 25 1 14 -6 25 -15 25 -20z m-630 -936 c30 -20 87 -53
125 -73 39 -20 105 -55 148 -78 101 -55 172 -64 246 -32 27 11 65 21 83 21 45
0 78 19 106 60 l24 35 -7 -145 c-11 -235 -10 -224 -33 -235 -12 -5 -22 -13
-22 -17 0 -5 -9 -8 -19 -8 -11 0 -21 -4 -23 -8 -3 -8 -100 -67 -138 -85 -8 -4
-28 -15 -45 -26 -16 -10 -46 -27 -65 -38 -19 -11 -102 -59 -184 -107 -82 -47
-150 -86 -152 -86 -2 0 -40 -22 -86 -50 -46 -27 -89 -50 -95 -50 -7 0 -13 -3
-13 -8 0 -4 -9 -12 -20 -17 -11 -6 -67 -38 -126 -72 -58 -35 -114 -63 -125
-63 -10 0 -42 15 -71 34 -29 18 -75 45 -103 60 -53 28 -87 48 -95 56 -3 3 -18
12 -35 20 -16 8 -58 32 -92 52 -35 21 -66 38 -70 38 -5 0 -16 7 -26 14 -17 13
-16 16 15 48 18 19 54 47 79 61 63 36 224 190 309 297 74 93 83 100 133 100
42 0 95 33 108 68 6 15 22 39 35 53 14 15 32 52 40 85 8 33 22 79 31 103 l16
43 46 -6 c29 -4 66 -20 101 -44z"/>
</g>
</svg>
