<?xml version="1.0" encoding="UTF-8"?>
<!-- Generator: visioncortex VTracer 0.6.5 -->
<svg version="1.1" xmlns="http://www.w3.org/2000/svg" width="1378" height="1378">
<path d="M0 0 C2.31 0 4.62 0 7 0 C7 0.66 7 1.32 7 2 C7.66 2 8.32 2 9 2 C9 2.99 9 3.98 9 5 C9.66 5 10.32 5 11 5 C11.33 7.31 11.66 9.62 12 12 C12.66 12 13.32 12 14 12 C15.59 14.06 15.59 14.06 17.5 17 C17.85 17.54 17.85 17.54 19.64 20.29 C20.43 21.53 21.22 22.76 22 24 C22.42 24.67 22.85 25.34 23.29 26.03 C31.04 38.27 31.04 38.27 34.18 43.84 C36 47 36 47 37.88 49.25 C40.54 52.7 42.44 56.39 44.49 60.22 C47.16 65.14 50.1 69.82 53.44 74.31 C55.47 77.1 57.1 79.97 58.7 83.02 C62.49 90.03 66.84 96.63 71.23 103.28 C71.83 104.2 72.43 105.13 73.05 106.09 C73.59 106.91 74.14 107.74 74.7 108.59 C76.05 111.09 76.6 113.2 77 116 C77.99 116.33 78.98 116.66 80 117 C80.33 118.65 80.66 120.3 81 122 C81.66 122 82.32 122 83 122 C83.97 123.71 84.94 125.41 85.91 127.12 C86.82 128.69 87.78 130.22 88.75 131.75 C90 134 90 134 90 137 C90.99 137.33 91.98 137.66 93 138 C94.68 140.43 96.2 142.83 97.69 145.38 C98.1 146.06 98.52 146.75 98.95 147.45 C102 152.61 102 152.61 102 156 C102.66 156 103.32 156 104 156 C104.66 157.98 105.32 159.96 106 162 C106.66 162 107.32 162 108 162 C108.5 163.07 108.99 164.14 109.5 165.25 C111.83 169.91 114.71 174.12 117.63 178.42 C120.53 182.74 123.23 187.18 125.94 191.62 C126.42 192.42 126.91 193.21 127.41 194.03 C130.85 199.7 130.85 199.7 132 202 C134.02 202.68 136.07 203.27 138.12 203.81 C155.7 208.63 172.83 214.82 189.09 223.06 C193.62 225.29 198.31 227.15 203 229 C203 229.66 203 230.32 203 231 C203.93 231.12 204.86 231.25 205.81 231.38 C209 232 209 232 212 234 C212 234.66 212 235.32 212 236 C214.31 236.33 216.62 236.66 219 237 C219 237.66 219 238.32 219 239 C219.34 239.04 219.34 239.04 221.06 239.25 C224.81 240.21 227.81 242.04 231.06 244.06 C231.72 244.46 232.37 244.86 233.04 245.27 C238.33 248.52 243.49 251.95 248.61 255.47 C251 257 251 257 254 258 C254 258.66 254 259.32 254 260 C254.72 260.26 255.44 260.51 256.18 260.77 C259.19 262.08 261.5 263.66 264.12 265.62 C264.61 265.98 264.61 265.98 267.05 267.8 C268.02 268.53 269 269.25 270 270 C271.79 271.27 273.58 272.54 275.38 273.81 C284.13 280.17 292.24 287.37 300.32 294.56 C302 296 302 296 304.21 297.56 C304.51 297.8 304.51 297.8 306 299 C306 299.66 306 300.32 306 301 C306.56 301.25 307.12 301.5 307.7 301.75 C310.39 303.21 312.46 304.97 314.75 307 C315.15 307.35 315.15 307.35 317.17 309.12 C319 311 319 311 319 313 C319.99 313.33 320.98 313.66 322 314 C322 314.66 322 315.32 322 316 C322.56 316.23 323.13 316.46 323.71 316.69 C326.63 318.36 328.46 320.43 330.69 322.94 C331.48 323.81 332.26 324.69 333.07 325.59 C335 328 335 328 336 331 C336.66 331 337.32 331 338 331 C339.38 332.33 339.38 332.33 341 334.25 C341.31 334.62 341.31 334.62 342.88 336.47 C343.58 337.3 344.28 338.14 345 339 C345.78 339.92 346.56 340.84 347.37 341.78 C364 361.47 364 361.47 364 365 C364.66 365 365.32 365 366 365 C367.62 367.27 367.62 367.27 369.44 370.25 C372.8 375.74 372.8 375.74 374.72 378.23 C376 380 376 380 376 382 C376.66 382 377.32 382 378 382 C379.16 383.77 380.23 385.59 381.25 387.44 C383.42 391.27 385.61 395 388.12 398.62 C396 410.23 396 410.23 396 416 C396.99 416.33 397.98 416.66 399 417 C400.25 419.51 400.25 419.51 401.44 422.69 C403.17 427.27 405.27 430.95 408 435 C409.22 437.39 410.39 439.75 411.5 442.19 C411.8 442.84 412.11 443.5 412.42 444.17 C414.56 448.88 416.41 453.63 418.1 458.52 C419.22 461.61 420.56 464.57 421.97 467.54 C423.2 470.48 424.19 473.47 425.18 476.5 C426.01 479.04 426.86 481.56 427.72 484.09 C435.54 507.27 435.54 507.27 436.44 514.56 C436.95 517.67 437.69 519.78 438.94 522.62 C441.13 527.79 441.91 532.86 442.61 538.41 C443 541 443 541 444 542 C444.28 543.54 444.51 545.1 444.72 546.66 C444.85 547.6 444.97 548.54 445.11 549.5 C445.37 551.5 445.63 553.5 445.89 555.5 C446.02 556.44 446.15 557.38 446.28 558.34 C446.4 559.21 446.51 560.08 446.63 560.97 C447 563 447 563 448 564 C448.22 566.05 448.37 568.1 448.5 570.15 C448.58 571.4 448.66 572.65 448.75 573.94 C448.83 575.27 448.92 576.61 449 577.94 C449.16 580.53 449.33 583.12 449.5 585.71 C449.57 586.87 449.64 588.03 449.72 589.22 C450 592 450 592 451 594 C451.1 596.21 451.13 598.41 451.13 600.62 C451.13 601.3 451.13 601.98 451.13 602.68 C451.14 604.93 451.14 607.19 451.13 609.44 C451.13 611 451.13 612.56 451.14 614.12 C451.14 617.4 451.14 620.67 451.13 623.95 C451.12 628.15 451.13 632.36 451.13 636.56 C451.14 639.78 451.14 643.01 451.13 646.24 C451.13 647.79 451.13 649.34 451.14 650.89 C451.14 653.05 451.13 655.21 451.13 657.38 C451.13 658 451.13 658 451.13 661.12 C451 664 451 664 450 666 C449.79 668.16 449.63 670.33 449.5 672.5 C449.46 673.15 449.46 673.15 449.25 676.44 C449.12 678.51 449 680.57 448.88 682.64 C448.75 684.64 448.63 686.63 448.5 688.63 C448.43 689.83 448.36 691.02 448.28 692.26 C448 695 448 695 447 696 C446.48 699 446 701.99 445.56 705 C444.62 711.4 443.47 717.7 442 724 C439.93 732.9 442.29 737.42 447 745 C448.82 748.13 450.6 751.28 452.38 754.44 C452.83 755.22 453.28 756 453.75 756.81 C454.17 757.55 454.59 758.29 455.02 759.06 C455.4 759.72 455.78 760.38 456.18 761.07 C457 763 457 763 457 767 C457.66 767 458.32 767 459 767 C459.52 768 460.04 769 460.57 770.04 C466.92 782.15 466.92 782.15 469.88 786 C472.29 789.41 473.09 791.96 474 796 C474.66 796 475.32 796 476 796 C476.66 798.31 477.32 800.62 478 803 C478.66 803 479.32 803 480 803 C480.39 803.81 480.78 804.63 481.18 805.46 C484.94 813.18 489.01 820.61 493.45 827.96 C495.86 831.97 498.07 836.01 500.09 840.24 C501 842 501 842 503.06 845.06 C504.78 847.66 505.93 850.14 507.09 853.01 C508.63 856.38 510.64 859.48 512.58 862.63 C514.21 865.35 515.61 868.15 517 871 C517.66 871.99 518.32 872.98 519 874 C519 875.32 519 876.64 519 878 C519.66 878 520.32 878 521 878 C522.32 880.22 523.63 882.45 524.94 884.69 C525.31 885.31 525.68 885.94 526.07 886.58 C528.08 890.04 529.51 892.96 530 897 C530.66 897 531.32 897 532 897 C532.24 897.51 532.48 898.02 532.73 898.54 C534.31 901.77 535.88 904.82 537.88 907.81 C540.37 911.55 542.43 915.44 544.55 919.39 C546 922 546 922 548.12 925.19 C551.74 930.61 555.25 936.31 555 943 C551.72 947.08 549.17 948.25 544 948.88 C541.3 949.07 539.08 949.02 536.42 948.48 C532.11 947.88 528.04 948.07 523.71 948.3 C522.81 948.35 521.91 948.39 520.99 948.44 C518.12 948.58 515.25 948.73 512.38 948.88 C510.5 948.97 508.63 949.06 506.75 949.15 C503.01 949.34 499.27 949.53 495.53 949.72 C491.89 949.91 488.24 950.09 484.59 950.26 C475.44 950.7 466.31 951.2 457.19 952 C456.69 952.04 456.69 952.04 454.17 952.25 C450.08 952.6 446.01 952.97 441.95 953.59 C439.15 953.98 437.64 953.78 435 953 C434.34 953.33 433.68 953.66 433 954 C430.83 954.12 428.66 954.18 426.5 954.21 C425.07 954.24 423.64 954.26 422.21 954.29 C421.44 954.3 420.66 954.32 419.87 954.33 C399.43 954.7 379.05 955.78 358.64 956.91 C337.81 958.07 337.81 958.07 327.64 958.31 C326.89 958.33 326.15 958.35 325.38 958.37 C322.11 958.45 318.84 958.5 315.56 958.53 C314.47 958.55 313.39 958.57 312.27 958.59 C311.36 958.6 310.45 958.61 309.51 958.62 C305.1 959.29 302.47 961.53 299.38 964.62 C297 967 297 967 294 968 C294 968.66 294 969.32 294 970 C288.52 975 288.52 975 286 975 C286 975.66 286 976.32 286 977 C284.1 978.51 284.1 978.51 281.62 980.12 C280.81 980.66 280 981.2 279.16 981.76 C277 983 277 983 275 983 C275 983.66 275 984.32 275 985 C273.05 986.51 271.11 987.89 269.06 989.25 C268.77 989.45 268.77 989.45 267.26 990.47 C265.51 991.66 263.76 992.83 262 994 C261.17 994.55 260.34 995.11 259.48 995.68 C258.05 996.64 256.61 997.59 255.17 998.54 C252.78 1000.15 250.46 1001.82 248.12 1003.5 C242.98 1007.12 237.56 1010.07 232 1013 C230.33 1013.91 228.66 1014.83 227 1015.75 C226.3 1016.14 225.6 1016.52 224.88 1016.92 C223.21 1017.88 221.6 1018.93 220 1020 C219.01 1020 218.02 1020 217 1020 C217 1020.66 217 1021.32 217 1022 C215.02 1022.33 213.04 1022.66 211 1023 C211 1023.66 211 1024.32 211 1025 C210.38 1025.28 209.76 1025.56 209.12 1025.85 C204.17 1028.09 199.24 1030.35 194.32 1032.65 C192.38 1033.56 190.44 1034.46 188.5 1035.37 C186.49 1036.31 184.48 1037.25 182.46 1038.2 C177.27 1040.59 171.97 1042.38 166.5 1044.07 C164 1045 164 1045 162 1047 C160.29 1047.62 158.55 1048.16 156.8 1048.66 C155.76 1048.96 154.71 1049.26 153.63 1049.57 C152.54 1049.87 151.44 1050.18 150.31 1050.5 C149.77 1050.65 149.77 1050.65 147.05 1051.43 C144.96 1052.03 142.87 1052.63 140.77 1053.22 C138.55 1053.85 136.32 1054.48 134.1 1055.13 C130.17 1056.23 126.22 1057.18 122.26 1058.12 C119.7 1058.81 117.28 1059.59 114.79 1060.47 C109.69 1062.2 104.54 1063.15 99.25 1064.06 C89.61 1065.75 89.61 1065.75 86.47 1067.05 C82.53 1068.56 78.43 1068.7 74.25 1069.06 C72.53 1069.22 70.8 1069.37 69.08 1069.54 C68.32 1069.6 67.56 1069.67 66.78 1069.73 C65 1070 65 1070 64 1071 C61.94 1071.23 59.88 1071.38 57.81 1071.5 C57.14 1071.54 56.47 1071.58 55.78 1071.62 C50.63 1071.91 45.48 1072.09 40.33 1072.25 C40 1072.26 40 1072.26 38.3 1072.31 C34.88 1072.42 31.46 1072.52 28.03 1072.61 C26.77 1072.64 25.5 1072.68 24.2 1072.72 C23.05 1072.75 21.91 1072.78 20.73 1072.81 C18 1073 18 1073 16 1074 C14.14 1074.1 12.27 1074.13 10.41 1074.13 C9.85 1074.13 9.85 1074.13 7.04 1074.14 C5.87 1074.13 4.7 1074.13 3.5 1074.12 C2.33 1074.13 1.17 1074.13 -0.04 1074.14 C-1.15 1074.14 -2.26 1074.13 -3.41 1074.13 C-4.43 1074.13 -5.45 1074.13 -6.51 1074.13 C-9 1074 -9 1074 -11 1073 C-13.07 1072.86 -15.15 1072.77 -17.23 1072.72 C-18.5 1072.68 -19.77 1072.65 -21.09 1072.61 C-21.76 1072.59 -22.43 1072.57 -23.12 1072.55 C-41.57 1072.07 -41.57 1072.07 -50.31 1071.5 C-51.42 1071.43 -52.53 1071.36 -53.68 1071.28 C-56 1071 -56 1071 -57 1070 C-58.35 1069.8 -59.72 1069.65 -61.08 1069.54 C-61.91 1069.46 -62.74 1069.38 -63.6 1069.3 C-65.35 1069.14 -67.1 1068.99 -68.86 1068.84 C-69.69 1068.76 -70.53 1068.68 -71.39 1068.6 C-72.15 1068.53 -72.92 1068.46 -73.7 1068.39 C-76.33 1067.94 -78.53 1067 -81 1066 C-82.65 1065.63 -84.31 1065.31 -85.98 1065.04 C-86.92 1064.87 -87.86 1064.71 -88.82 1064.55 C-90.76 1064.23 -92.7 1063.91 -94.63 1063.59 C-99.89 1062.68 -104.79 1061.5 -109.82 1059.72 C-114.28 1058.25 -118.91 1057.45 -123.51 1056.54 C-128.13 1055.57 -131.77 1054.15 -136 1052 C-138.97 1051.04 -141.98 1050.27 -145 1049.5 C-150.37 1048.13 -155.07 1046.61 -160 1044 C-162.03 1043.18 -164.07 1042.39 -166.12 1041.62 C-175.35 1038.11 -184.26 1034.53 -192.87 1029.68 C-197.46 1027.22 -202.17 1025.06 -206.9 1022.89 C-214.2 1019.53 -220.95 1015.46 -227.75 1011.19 C-228.45 1010.75 -229.15 1010.31 -229.87 1009.86 C-231.27 1008.98 -232.67 1008.1 -234.07 1007.22 C-235.75 1006.16 -237.44 1005.1 -239.13 1004.04 C-244.44 1000.7 -249.61 997.23 -254.71 993.58 C-257 992 -257 992 -259.79 990.42 C-260.52 989.95 -261.25 989.48 -262 989 C-262 988.34 -262 987.68 -262 987 C-262.56 986.92 -263.11 986.84 -263.69 986.75 C-266.72 985.77 -268.53 984.01 -271 982 C-272.83 980.68 -274.66 979.37 -276.5 978.06 C-280.37 975.27 -283.74 972.47 -287 969 C-287.66 968.67 -288.32 968.34 -289 968 C-289 967.34 -289 966.68 -289 966 C-290.32 965.34 -291.64 964.68 -293 964 C-293 963.34 -293 962.68 -293 962 C-293.8 961.69 -294.61 961.38 -295.44 961.06 C-298 960 -298 960 -299 959 C-300.95 958.88 -302.9 958.82 -304.86 958.79 C-306.15 958.76 -307.45 958.74 -308.79 958.71 C-309.5 958.7 -310.21 958.68 -310.94 958.67 C-327.61 958.34 -344.23 957.48 -360.88 956.5 C-378.66 955.45 -396.42 954.61 -414.24 954.29 C-414.95 954.28 -415.66 954.26 -416.39 954.25 C-418.26 954.21 -420.13 954.19 -422.01 954.16 C-424.53 954.02 -426.58 953.63 -429 953 C-429.8 953.16 -430.61 953.33 -431.44 953.5 C-434.35 954.07 -436.11 953.6 -439 953 C-440.84 952.82 -442.68 952.66 -444.52 952.54 C-445.61 952.46 -446.7 952.38 -447.82 952.3 C-448.99 952.22 -450.17 952.14 -451.38 952.06 C-452.61 951.98 -453.84 951.89 -455.12 951.8 C-457.74 951.63 -460.37 951.45 -463 951.27 C-466.89 951.01 -470.79 950.73 -474.69 950.46 C-487.97 949.55 -501.25 948.79 -514.56 948.31 C-515.19 948.29 -515.19 948.29 -518.38 948.17 C-519.56 948.13 -520.73 948.09 -521.94 948.05 C-522.97 948.02 -524 947.98 -525.06 947.95 C-528.13 948 -530.98 948.47 -534 949 C-538.92 948.69 -542.86 947.91 -546.75 944.81 C-548.13 941.71 -548.12 940.17 -546.96 937 C-545.4 933.76 -543.55 930.73 -541.64 927.68 C-539.44 924.09 -537.46 920.4 -535.46 916.7 C-533.34 912.78 -531.17 908.89 -529 905 C-528.34 905 -527.68 905 -527 905 C-526.94 904.15 -526.88 903.31 -526.81 902.44 C-525.97 898.88 -524.6 896.86 -522.4 894 C-520.28 890.97 -518.78 887.67 -517.21 884.33 C-516 882 -516 882 -514.45 879.93 C-513 878 -513 878 -511.5 874.31 C-511.25 873.77 -511.25 873.77 -510 871 C-509.01 870.67 -508.02 870.34 -507 870 C-506.9 869.11 -506.79 868.23 -506.69 867.31 C-505.96 863.79 -504.87 862.06 -503 859 C-500.9 855.1 -498.88 851.15 -496.85 847.21 C-494.45 842.61 -491.93 838.15 -489.11 833.79 C-487.57 831.3 -486.31 828.7 -485.03 826.07 C-482.47 820.93 -479.64 815.96 -476.56 811.12 C-474.07 807.2 -471.87 803.14 -469.66 799.05 C-467.84 795.7 -465.96 792.38 -464.06 789.06 C-463.73 788.48 -463.39 787.89 -463.05 787.29 C-461.37 784.36 -459.68 781.45 -457.97 778.55 C-457.34 777.48 -456.71 776.41 -456.06 775.31 C-455.78 774.84 -455.78 774.84 -454.35 772.43 C-453 770 -453 770 -452 767 C-451.34 767 -450.68 767 -450 767 C-449.91 766.32 -449.82 765.64 -449.72 764.93 C-448.83 761.32 -447.22 758.3 -445.44 755.06 C-445.09 754.4 -444.74 753.75 -444.38 753.07 C-442.6 749.75 -440.76 746.58 -438.59 743.5 C-434.55 737.61 -432.43 733.17 -433.48 726.02 C-435.31 716.69 -435.31 716.69 -437 715 C-437.91 708.63 -438.12 702.43 -438 696 C-438.66 696 -439.32 696 -440 696 C-441.33 687.74 -442.27 679.6 -442.66 671.24 C-442.81 668.27 -443.05 665.85 -444 663 C-444.09 660.78 -444.13 658.56 -444.13 656.34 C-444.13 656.01 -444.13 656.01 -444.13 654.31 C-444.14 652.09 -444.14 649.87 -444.13 647.65 C-444.13 646.11 -444.13 644.57 -444.14 643.03 C-444.14 639.8 -444.14 636.57 -444.13 633.35 C-444.12 629.2 -444.13 625.06 -444.13 620.92 C-444.14 617.74 -444.14 614.56 -444.13 611.38 C-444.13 609.85 -444.13 608.32 -444.14 606.79 C-444.14 604.66 -444.13 602.53 -444.13 600.4 C-444.13 599.19 -444.13 597.97 -444.13 596.72 C-444 594 -444 594 -443 593 C-442.8 591.13 -442.65 589.26 -442.54 587.39 C-442.46 586.24 -442.38 585.1 -442.3 583.91 C-442.14 581.49 -441.99 579.06 -441.84 576.63 C-441.76 575.48 -441.68 574.33 -441.6 573.14 C-441.53 572.08 -441.46 571.03 -441.39 569.94 C-441 566.98 -440.14 564.74 -439 562 C-438.61 559.7 -438.61 559.7 -438.4 557.39 C-438.32 556.55 -438.24 555.72 -438.16 554.86 C-438.09 554 -438.01 553.14 -437.94 552.25 C-437.78 550.53 -437.63 548.8 -437.46 547.08 C-437.4 546.32 -437.33 545.56 -437.27 544.78 C-437 543 -437 543 -436 542 C-435.66 540.57 -435.37 539.12 -435.1 537.67 C-434.93 536.79 -434.76 535.91 -434.59 535 C-434.24 533.14 -433.89 531.27 -433.55 529.41 C-433.38 528.53 -433.21 527.64 -433.04 526.73 C-432.96 526.33 -432.96 526.33 -432.58 524.27 C-431.99 521.96 -431.09 520.11 -430 518 C-429.41 515.16 -428.99 512.32 -428.56 509.46 C-428 507 -428 507 -426 505 C-425.47 502.71 -425.47 502.71 -425.06 499.94 C-424.19 494.71 -422.82 489.96 -421 485 C-420.68 484.1 -420.36 483.2 -420.02 482.28 C-419.03 479.51 -418.02 476.76 -417 474 C-416.74 473.29 -416.48 472.57 -416.22 471.84 C-414.68 467.63 -412.94 463.54 -411.06 459.47 C-410.17 457.39 -409.38 455.32 -408.61 453.2 C-407.08 449.07 -405.2 445.17 -403.19 441.25 C-402.84 440.56 -402.49 439.87 -402.13 439.16 C-401.09 437.11 -400.05 435.05 -399 433 C-397.87 430.77 -396.75 428.54 -395.62 426.31 C-395.39 425.86 -395.39 425.86 -394.23 423.55 C-393.03 421.07 -391.99 418.57 -391 416 C-390.34 416 -389.68 416 -389 416 C-388.92 415.32 -388.84 414.64 -388.75 413.94 C-387.79 410.19 -386.01 407.26 -384 404 C-383.44 403.07 -382.88 402.14 -382.31 401.19 C-377.47 393.2 -372.35 385.43 -367.13 377.69 C-365.09 374.64 -363.12 371.54 -361.16 368.44 C-360.77 367.97 -360.39 367.49 -360 367 C-359.34 367 -358.68 367 -358 367 C-357.75 366.26 -357.5 365.51 -357.25 364.75 C-355.9 361.77 -354.33 360.26 -352 358 C-350.75 355.75 -350.75 355.75 -350 354 C-349.34 354 -348.68 354 -348 354 C-347.78 353.31 -347.55 352.61 -347.32 351.89 C-345.69 348.32 -343.39 345.61 -340.81 342.69 C-340.29 342.09 -339.77 341.49 -339.24 340.88 C-334.35 335.29 -329.28 329.88 -324.17 324.51 C-321.43 321.63 -318.76 318.76 -316.25 315.69 C-313.76 312.71 -311.01 310.45 -308 308 C-306.33 306.34 -304.66 304.67 -303 303 C-301.12 301.22 -299.22 299.44 -297.31 297.69 C-296.84 297.25 -296.84 297.25 -294.43 295.01 C-292 293 -292 293 -290 293 C-289.67 292.01 -289.34 291.02 -289 290 C-286.93 288.13 -286.93 288.13 -284.31 286.12 C-281.37 283.84 -278.45 281.56 -275.62 279.12 C-273.41 277.33 -271.53 276.22 -269 275 C-268.76 274.75 -268.76 274.75 -267.56 273.5 C-265.58 271.6 -263.56 270.9 -261 270 C-261 269.34 -261 268.68 -261 268 C-259.52 266.81 -259.52 266.81 -257.38 265.44 C-256.55 264.91 -255.73 264.38 -254.88 263.83 C-253.93 263.22 -252.98 262.62 -252 262 C-250.36 260.94 -248.71 259.88 -247.07 258.82 C-245.28 257.67 -243.49 256.52 -241.7 255.37 C-239.23 253.79 -236.76 252.2 -234.3 250.6 C-216.46 239 -216.46 239 -212 239 C-212 238.34 -212 237.68 -212 237 C-209.69 236.67 -207.38 236.34 -205 236 C-204.67 235.01 -204.34 234.02 -204 233 C-201.56 231.75 -201.56 231.75 -198.44 230.56 C-194.68 229.09 -191.06 227.59 -187.5 225.69 C-184 224 -184 224 -180 224 C-180 223.34 -180 222.68 -180 222 C-170.92 217.72 -161.94 213.94 -152.4 210.81 C-149.85 209.95 -147.33 209.01 -144.81 208.06 C-139.34 206.01 -133.76 204.63 -128.07 203.32 C-124.11 201.62 -123.07 199.72 -121 196 C-120.74 195.56 -120.74 195.56 -119.43 193.32 C-118.92 192.41 -118.4 191.5 -117.88 190.56 C-114.64 184.96 -111.13 179.59 -107.46 174.25 C-104.99 170.62 -102.92 166.97 -101 163 C-100.01 161.66 -99.01 160.33 -98 159 C-97.67 158.01 -97.34 157.02 -97 156 C-96.34 156 -95.68 156 -95 156 C-94.88 155.58 -94.88 155.58 -94.25 153.43 C-92.89 149.71 -91.09 146.47 -89 143.12 C-88.64 142.53 -88.29 141.94 -87.92 141.33 C-87.01 139.85 -86.01 138.42 -85 137 C-84.34 137 -83.68 137 -83 137 C-82.9 136.24 -82.79 135.47 -82.69 134.69 C-81.91 131.66 -81.14 131.14 -79 129 C-77.86 126.71 -76.94 124.38 -76 122 C-75.34 122 -74.68 122 -74 122 C-73.89 121.67 -73.89 121.67 -73.31 120 C-71.96 116.9 -70.33 114.24 -68.5 111.4 C-66.04 107.47 -63.81 103.4 -61.55 99.34 C-61.04 98.57 -60.53 97.8 -60 97 C-59.34 97 -58.68 97 -58 97 C-57.9 96.29 -57.81 95.58 -57.71 94.84 C-56.88 91.53 -55.51 89.34 -53.62 86.5 C-50.05 81.09 -50.05 81.09 -48.43 78.38 C-46.85 75.75 -45.1 73.31 -43.28 70.84 C-40.41 66.7 -38.02 62.27 -35.56 57.88 C-32.06 51.7 -28.38 45.65 -24.62 39.62 C-24.1 38.77 -23.58 37.92 -23.04 37.05 C-22.54 36.26 -22.05 35.47 -21.54 34.66 C-21.1 33.96 -20.66 33.25 -20.2 32.52 C-19.81 32.02 -19.41 31.52 -19 31 C-18.34 31 -17.68 31 -17 31 C-16.67 29.02 -16.34 27.04 -16 25 C-15.34 25 -14.68 25 -14 25 C-13.77 24.34 -13.55 23.68 -13.31 23 C-11.61 19.11 -9.6 15.36 -7 12 C-6.34 12 -5.68 12 -5 12 C-4.96 11.66 -4.96 11.66 -4.75 9.94 C-3.78 6.13 -2.04 3.36 0 0 Z M-50 364 C-50 364.66 -50 365.32 -50 366 C-50.64 366.04 -51.29 366.07 -51.95 366.11 C-59.51 366.66 -66.66 368.14 -74 370 C-74 370.66 -74 371.32 -74 372 C-74.61 372.11 -75.21 372.22 -75.84 372.33 C-82.03 373.5 -87.99 375.08 -94 377 C-94 377.66 -94 378.32 -94 379 C-94.71 379.12 -95.41 379.24 -96.14 379.37 C-99.16 380.03 -101.92 380.98 -104.81 382.06 C-105.79 382.42 -106.76 382.79 -107.77 383.16 C-108.14 383.3 -108.14 383.3 -110 384 C-110 384.66 -110 385.32 -110 386 C-110.3 386.1 -110.3 386.1 -111.79 386.59 C-115.91 387.94 -120 389.32 -124 391 C-124 391.66 -124 392.32 -124 393 C-124.87 393.27 -125.73 393.54 -126.62 393.81 C-129.92 394.97 -132.91 396.38 -136 398 C-136 398.66 -136 399.32 -136 400 C-136.91 400.27 -137.82 400.54 -138.75 400.81 C-141.73 401.9 -143.69 402.86 -146 405 C-146 405.66 -146 406.32 -146 407 C-146.56 407.1 -147.11 407.21 -147.69 407.31 C-150.48 408.14 -152.61 409.34 -155 411 C-155 411.66 -155 412.32 -155 413 C-155.56 413.27 -156.11 413.54 -156.69 413.81 C-160.62 415.83 -163.94 417.81 -167 421 C-168.67 422.33 -170.33 423.67 -172 425 C-172.5 425.5 -172.99 425.99 -173.5 426.5 C-175 428 -175 428 -177.69 430.06 C-178.07 430.38 -178.07 430.38 -180 432 C-180 432.66 -180 433.32 -180 434 C-180.3 434.13 -180.3 434.13 -181.81 434.81 C-184 436 -185.41 437.1 -187 439 C-187 439.66 -187 440.32 -187 441 C-187.6 441.23 -188.2 441.45 -188.81 441.69 C-191.58 443.35 -192.36 445.24 -194 448 C-194.42 448.33 -194.42 448.33 -196.56 450 C-199.29 452.23 -199.74 453.8 -201 457 C-202.32 457.7 -203.65 458.37 -205 459 C-205.7 460.32 -206.37 461.65 -207 463 C-207.99 463.66 -208.98 464.32 -210 465 C-211.1 466.69 -211.1 466.69 -212.06 468.56 C-214 472 -214 472 -216 473 C-217.34 475.47 -218.5 478.01 -219.68 480.55 C-220.94 482.88 -222.15 484.17 -224 486 C-225.17 488.19 -225.17 488.19 -226.19 490.56 C-226.53 491.35 -226.88 492.13 -227.23 492.94 C-228 495 -228 495 -228 497 C-228.99 497.33 -229.98 497.66 -231 498 C-232.17 499.96 -232.17 499.96 -233.19 502.38 C-233.53 503.17 -233.88 503.96 -234.23 504.77 C-235 507 -235 507 -235 510 C-235.66 510 -236.32 510 -237 510 C-237.67 511.6 -238.34 513.21 -239 514.81 C-239.37 515.71 -239.74 516.6 -240.12 517.52 C-241 520 -241 520 -241 523 C-241.66 523 -242.32 523 -243 523 C-243.84 525.62 -244.67 528.25 -245.5 530.88 C-245.62 531.25 -245.62 531.25 -246.22 533.14 C-248 538.77 -248 538.77 -248 541 C-248.66 541 -249.32 541 -250 541 C-250.84 544.58 -251.67 548.17 -252.5 551.75 C-252.62 552.26 -252.62 552.26 -253.22 554.83 C-253.45 555.81 -253.67 556.79 -253.91 557.8 C-254.12 558.7 -254.33 559.6 -254.54 560.53 C-255 563 -255 563 -255 567 C-255.66 567 -256.32 567 -257 567 C-263.44 605.4 -264.43 644.65 -257 683 C-256.34 683 -255.68 683 -255 683 C-254.99 683.27 -254.99 683.27 -254.92 684.62 C-254.32 693 -252.16 700.91 -250 709 C-249.34 709 -248.68 709 -248 709 C-247.92 709.91 -247.83 710.82 -247.75 711.75 C-246.97 717.37 -244.88 722.67 -243 728 C-242.34 728 -241.68 728 -241 728 C-240.9 728.85 -240.79 729.69 -240.69 730.56 C-239.92 734.41 -238.64 737.44 -237 741 C-236.34 741 -235.68 741 -235 741 C-234.9 741.3 -234.9 741.3 -234.41 742.79 C-233.06 746.91 -231.68 751 -230 755 C-229.34 755 -228.68 755 -228 755 C-227.73 755.87 -227.46 756.73 -227.19 757.62 C-226.03 760.92 -224.62 763.91 -223 767 C-222.34 767 -221.68 767 -221 767 C-220.73 767.72 -220.46 768.44 -220.19 769.19 C-219 772 -217.73 774.48 -216 777 C-215.34 777 -214.68 777 -214 777 C-213.75 777.72 -213.51 778.44 -213.25 779.18 C-211.86 782.31 -210.14 784.51 -207.94 787.12 C-204.1 791.69 -204.1 791.69 -203 795 C-202.2 795.64 -201.39 796.28 -200.56 796.94 C-197.97 799.02 -197.4 800.12 -196 803 C-193.48 805.73 -190.85 808.12 -188 810.5 C-184.08 813.76 -180.63 817.17 -177.5 821.19 C-174.96 824.04 -173.48 824.74 -170 826 C-169.84 826.5 -169.84 826.5 -169 829 C-167.02 830.36 -165.02 831.69 -163 833 C-161.65 834.31 -160.31 835.64 -159 837 C-155.46 840 -155.46 840 -152 840 C-151.84 840.5 -151.84 840.5 -151 843 C-148.34 844.99 -145.39 847 -142 847 C-141.84 847.5 -141.84 847.5 -141 850 C-139.22 851.17 -139.22 851.17 -137.06 852.19 C-136.35 852.53 -135.64 852.88 -134.91 853.23 C-133 854 -133 854 -131 854 C-131 854.66 -131 855.32 -131 856 C-129.71 856.67 -128.42 857.34 -127.12 858 C-126.41 858.37 -125.69 858.74 -124.95 859.12 C-123 860 -123 860 -121 860 C-121 860.66 -121 861.32 -121 862 C-119.04 862.84 -117.08 863.67 -115.12 864.5 C-114.58 864.73 -114.58 864.73 -111.82 865.91 C-109 867 -109 867 -107 867 C-107 867.66 -107 868.32 -107 869 C-104.38 869.84 -101.75 870.67 -99.12 871.5 C-98.75 871.62 -98.75 871.62 -96.86 872.22 C-91.23 874 -91.23 874 -89 874 C-89 874.66 -89 875.32 -89 876 C-86.09 876.84 -83.17 877.67 -80.25 878.5 C-79.42 878.74 -78.6 878.98 -77.75 879.22 C-77.35 879.34 -77.35 879.34 -75.33 879.91 C-74.59 880.12 -73.86 880.33 -73.11 880.54 C-71 881 -71 881 -67 881 C-67 881.66 -67 882.32 -67 883 C-63.81 883.65 -60.63 884.29 -57.44 884.94 C-56.54 885.12 -55.65 885.3 -54.72 885.49 C-47.08 887.03 -39.81 888.14 -32 888 C-32 888.66 -32 889.32 -32 890 C-24.51 890.8 -17.12 891.15 -9.59 891.13 C-9.07 891.13 -9.07 891.13 -6.42 891.14 C-4.23 891.14 -2.03 891.13 0.16 891.13 C3.49 891.13 6.82 891.13 10.15 891.14 C12.3 891.14 14.45 891.13 16.59 891.13 C17.57 891.13 18.55 891.14 19.57 891.14 C26.09 891.12 32.51 890.69 39 890 C39 889.34 39 888.68 39 888 C40.09 888.04 41.18 888.08 42.3 888.12 C47.72 888.12 52.88 887.09 58.19 886.06 C59.16 885.88 60.13 885.7 61.13 885.51 C65.43 884.7 69.71 883.86 74 883 C74 882.34 74 881.68 74 881 C74.52 880.96 74.52 880.96 77.12 880.75 C83.59 879.97 89.79 877.88 96 876 C96 875.34 96 874.68 96 874 C96.56 873.89 97.11 873.78 97.69 873.67 C103.03 872.56 107.93 871.03 113 869 C113 868.34 113 867.68 113 867 C113.8 866.92 114.61 866.84 115.44 866.75 C119.96 865.8 123.85 863.98 128 862 C128 861.34 128 860.68 128 860 C128.83 859.76 129.66 859.53 130.51 859.28 C134.62 857.77 138.14 855.76 141.88 853.5 C142.56 853.1 143.25 852.69 143.96 852.28 C145.68 851.24 147.34 850.13 149 849 C149 848.34 149 847.68 149 847 C149.89 846.73 150.77 846.46 151.69 846.19 C156.17 844.58 159.19 842.81 162.56 839.44 C164.76 837.24 166.28 836.31 169 835 C169.66 834.01 170.32 833.02 171 832 C172.67 831 174.33 830 176 829 C176.66 828.01 177.32 827.02 178 826 C178.76 825.55 179.53 825.09 180.31 824.62 C184.28 822.23 187.11 819.15 189.94 815.5 C191.91 813.11 194.02 811.31 196.43 809.38 C198.73 807.36 200.61 805.05 202.56 802.69 C204 801 204 801 206.62 798.44 C209.17 795.83 211 793.04 213 790 C213.66 789.67 214.32 789.34 215 789 C216 787.41 216 787.41 217 785.5 C218.78 782.11 218.78 782.11 221 781 C222.29 779 222.29 779 223.62 776.56 C224.07 775.76 224.52 774.96 224.98 774.13 C226 772 226 772 226 770 C226.66 770 227.32 770 228 770 C228.84 768.57 229.67 767.13 230.5 765.69 C230.96 764.89 231.43 764.09 231.91 763.26 C233 761 233 761 233 758 C233.66 758 234.32 758 235 758 C244.33 740.82 244.33 740.82 247.18 733.18 C248.01 730.97 248.95 728.84 249.94 726.69 C260 704.19 260 704.19 260 693 C260.66 693 261.32 693 262 693 C262.72 688.89 263.43 684.79 264.14 680.68 C264.38 679.28 264.62 677.89 264.86 676.5 C266.19 668.96 267.34 661.68 267 654 C267.66 654 268.32 654 269 654 C270.52 635.53 271.12 616.45 269 598 C268.67 597.67 268.34 597.34 268 597 C267.74 595.49 267.53 593.96 267.35 592.43 C267.23 591.48 267.12 590.53 267 589.54 C266.87 588.52 266.75 587.49 266.62 586.44 C265.44 576.87 263.93 567.45 262 558 C261.34 558 260.68 558 260 558 C259.96 557.48 259.96 557.48 259.75 554.88 C258.97 548.41 256.88 542.21 255 536 C254.34 536 253.68 536 253 536 C252.95 535.61 252.95 535.61 252.69 533.62 C251.8 528.97 250.42 524.52 249 520 C248.34 520 247.68 520 247 520 C246.81 519.34 246.61 518.67 246.41 517.99 C243.83 509.22 243.83 509.22 242 505 C241.34 505 240.68 505 240 505 C239.73 504.15 239.46 503.31 239.19 502.44 C237.95 498.86 236.52 495.46 235 492 C234.34 492 233.68 492 233 492 C232.87 491.56 232.87 491.56 232.19 489.31 C231.07 486.21 229.9 483.69 228 481 C227.34 481 226.68 481 226 481 C225.87 480.64 225.87 480.64 225.19 478.81 C224 476 222.73 473.52 221 471 C220.34 471 219.68 471 219 471 C218.87 470.54 218.87 470.54 218.19 468.19 C217.09 465.24 216.47 463.85 214 462 C213.34 462 212.68 462 212 462 C211.9 461.42 211.79 460.85 211.69 460.25 C210.89 457.64 209.81 456.03 208 454 C207.34 454 206.68 454 206 454 C205.75 453.43 205.5 452.86 205.24 452.28 C203.83 449.69 202.17 447.75 200.19 445.56 C199.47 444.77 198.76 443.99 198.03 443.18 C196.47 441.5 194.87 439.87 193.25 438.25 C191 436 191 436 189.06 433.44 C186.67 430.61 184.09 429.02 181 427 C179.33 425.33 177.67 423.67 176 422 C175.34 421.67 174.68 421.34 174 421 C172 420 172 420 169.56 417.5 C167 415 167 415 164.31 413.94 C162 413 162 413 161.06 411.06 C159.5 408.02 157.02 407.41 154 406 C153.67 405.34 153.34 404.68 153 404 C146.65 400 146.65 400 143 400 C143 399.34 143 398.68 143 398 C141.57 397.16 140.13 396.33 138.69 395.5 C137.89 395.04 137.09 394.57 136.26 394.09 C134 393 134 393 131 393 C131 392.34 131 391.68 131 391 C129.23 390.16 127.46 389.33 125.69 388.5 C125.19 388.27 125.19 388.27 122.7 387.09 C120 386 120 386 117 386 C117 385.34 117 384.68 117 384 C114.9 383.16 112.79 382.33 110.69 381.5 C109.52 381.04 108.34 380.57 107.14 380.09 C104 379 104 379 101 379 C101 378.34 101 377.68 101 377 C98.42 376.16 95.84 375.33 93.25 374.5 C92.52 374.26 91.79 374.02 91.04 373.78 C90.33 373.55 89.62 373.33 88.89 373.09 C88.24 372.88 87.59 372.67 86.92 372.46 C85 372 85 372 81 372 C81 371.34 81 370.68 81 370 C78.11 369.33 75.21 368.66 72.31 368 C71.5 367.81 70.68 367.62 69.84 367.42 C65.83 366.51 62.14 365.73 58 366 C58 365.34 58 364.68 58 364 C54.4 363.52 50.79 363.04 47.19 362.56 C46.18 362.43 45.18 362.29 44.14 362.15 C41.1 361.75 38.05 361.37 35 361 C34.16 360.9 33.32 360.79 32.45 360.69 C23.35 359.72 14.21 359.76 5.06 359.75 C4.62 359.75 4.62 359.75 2.41 359.74 C-15.23 359.73 -32.61 360.9 -50 364 Z " fill="#F6E717" transform="translate(687,115)"/>
<path d="M0 0 C0 0.33 0 0.66 0 1 C-0.58 1.02 -0.58 1.02 -3.53 1.15 C-13.31 1.58 -23.06 2.19 -32.81 3 C-33.32 3.04 -33.32 3.04 -35.86 3.25 C-39.95 3.6 -44 3.97 -48.05 4.59 C-50.85 4.98 -52.36 4.78 -55 4 C-55.66 4.33 -56.32 4.66 -57 5 C-59.77 5.09 -62.52 5.12 -65.29 5.1 C-65.7 5.1 -65.7 5.1 -67.77 5.09 C-70.39 5.09 -73.01 5.08 -75.62 5.06 C-77.4 5.06 -79.17 5.05 -80.95 5.05 C-85.3 5.04 -89.65 5.02 -94 5 C-94 4.67 -94 4.34 -94 4 C-87.73 4 -81.46 4 -75 4 C-75 3.34 -75 2.68 -75 2 C-67.69 1.71 -60.39 1.43 -53.08 1.15 C-50.61 1.05 -48.13 0.95 -45.66 0.85 C-30.43 0.25 -15.24 -0.15 0 0 Z " fill="#FEFD01" transform="translate(1177,1064)"/>
<path d="M0 0 C5.28 0.16 5.28 0.16 32 1 C32 1.66 32 2.32 32 3 C33.13 2.9 34.26 2.81 35.43 2.71 C36.91 2.6 38.39 2.49 39.88 2.38 C40.62 2.31 41.37 2.25 42.14 2.18 C44.09 2.04 46.04 2.01 48 2 C48.66 2.66 49.32 3.32 50 4 C44.95 4.02 39.89 4.04 34.84 4.05 C33.12 4.06 31.4 4.07 29.68 4.08 C27.21 4.09 24.74 4.09 22.27 4.1 C21.88 4.1 21.88 4.1 19.94 4.11 C14.44 4.11 14.44 4.11 11.92 3.46 C10 3 10 3 7.56 3.56 C4.43 4.1 2.82 3.37 0 2 C0 1.34 0 0.68 0 0 Z " fill="#FFFE00" transform="translate(248,1065)"/>
<path d="M0 0 C5.28 0.16 5.28 0.16 32 1 C32 1.33 32 1.66 32 2 C31.36 2.03 30.72 2.05 30.06 2.08 C27.14 2.19 24.23 2.31 21.31 2.44 C20.31 2.48 19.3 2.52 18.26 2.56 C17.28 2.6 16.31 2.64 15.3 2.68 C14.41 2.72 13.51 2.76 12.59 2.79 C10 3 10 3 7.34 3.58 C4.34 4.12 2.7 3.31 0 2 C0 1.34 0 0.68 0 0 Z " fill="#FDF40A" transform="translate(248,1065)"/>
<path d="M0 0 C1.15 3.71 1.15 3.71 -0.19 6.31 C-0.79 7.2 -1.38 8.09 -2 9 C-6 15.6 -6 15.6 -6 18 C-6.99 18 -7.98 18 -9 18 C-9.33 18.66 -9.66 19.32 -10 20 C-9.38 17.05 -8.43 14.72 -6.93 12.11 C-6.53 11.4 -6.13 10.69 -5.71 9.96 C-5.29 9.23 -4.87 8.5 -4.44 7.75 C-4.01 7 -3.59 6.26 -3.15 5.49 C-2.1 3.66 -1.05 1.83 0 0 Z " fill="#FEF806" transform="translate(253,850)"/>
<path d="M0 0 C9.24 0 18.48 0 28 0 C27.67 0.49 27.67 0.49 26 3 C25.45 2.84 24.89 2.68 24.33 2.52 C21.78 1.95 19.4 1.79 16.8 1.68 C16.31 1.66 16.31 1.66 13.83 1.56 C12.81 1.52 11.8 1.48 10.75 1.44 C9.72 1.39 8.69 1.35 7.62 1.31 C5.08 1.2 2.54 1.1 0 1 C0 0.67 0 0.34 0 0 Z " fill="#FDF30B" transform="translate(1102,1066)"/>
<path d="M0 0 C0.33 0.99 0.66 1.98 1 3 C0.34 3 -0.32 3 -1 3 C-0.9 3.7 -0.79 4.4 -0.69 5.12 C-1.14 9.31 -3.16 10.95 -6 14 C-6.33 13.34 -6.66 12.68 -7 12 C-5.82 9.43 -5.82 9.43 -4.12 6.44 C-3.57 5.45 -3.02 4.45 -2.45 3.43 C-1 1 -1 1 0 0 Z " fill="#FEF509" transform="translate(220,910)"/>
<path d="M0 0 C0.66 0.33 1.32 0.66 2 1 C1.42 4.35 0.41 5.68 -2 8 C-3.19 10.19 -3.19 10.19 -4 12 C-4.66 11.67 -5.32 11.34 -6 11 C-4.68 8.36 -3.36 5.72 -2 3 C-1.34 3 -0.68 3 0 3 C0 2.01 0 1.02 0 0 Z " fill="#FDF806" transform="translate(237,879)"/>
<path d="M0 0 C1 3 1 3 0 5.26 C-0.47 6.06 -0.95 6.86 -1.44 7.69 C-1.67 8.09 -1.67 8.09 -2.87 10.14 C-3.24 10.75 -3.62 11.37 -4 12 C-4.66 11.67 -5.32 11.34 -6 11 C-5.19 9.35 -4.38 7.71 -3.56 6.06 C-3.11 5.15 -2.66 4.23 -2.19 3.29 C-1 1 -1 1 0 0 Z " fill="#FEFC02" transform="translate(195,954)"/>
<path d="M0 0 C1 3 1 3 -0.44 6.19 C-0.7 6.65 -0.7 6.65 -2 9 C-2.66 9 -3.32 9 -4 9 C-4.33 9.66 -4.66 10.32 -5 11 C-4.47 6.49 -2.63 3.65 0 0 Z " fill="#FEF707" transform="translate(165,1008)"/>
<path d="M0 0 C2.78 1.71 3.85 2.48 4.75 5.69 C4.83 6.45 4.91 7.21 5 8 C4.34 8 3.68 8 3 8 C3 7.01 3 6.02 3 5 C2.34 5 1.68 5 1 5 C1 4.34 1 3.68 1 3 C0.34 2.67 -0.32 2.34 -1 2 C-0.67 1.34 -0.34 0.68 0 0 Z " fill="#FEFA05" transform="translate(1234,1041)"/>
<path d="M0 0 C0.33 0.99 0.66 1.98 1 3 C-0.94 6.19 -0.94 6.19 -3 9 C-3.33 8.01 -3.66 7.02 -4 6 C-2.06 2.81 -2.06 2.81 0 0 Z " fill="#FEFA04" transform="translate(226,899)"/>
</svg>
