<?xml version="1.0" standalone="no"?>
<!DOCTYPE svg PUBLIC "-//W3C//DTD SVG 20010904//EN"
 "http://www.w3.org/TR/2001/REC-SVG-20010904/DTD/svg10.dtd">
<svg version="1.0" xmlns="http://www.w3.org/2000/svg"
 width="512.000000pt" height="512.000000pt" viewBox="0 0 512.000000 512.000000"
 preserveAspectRatio="xMidYMid meet">

<g transform="translate(0.000000,512.000000) scale(0.100000,-0.100000)"
fill="#000000" stroke="none">
<path d="M0 2560 l0 -2560 2560 0 2560 0 0 2560 0 2560 -2560 0 -2560 0 0
-2560z m2587 2203 c11 -16 28 -48 38 -73 10 -25 26 -56 35 -70 9 -14 25 -45
35 -70 10 -25 26 -56 35 -70 9 -14 25 -45 35 -70 10 -25 26 -56 35 -70 9 -14
25 -45 35 -70 10 -25 26 -56 35 -70 9 -14 25 -45 35 -70 10 -25 27 -57 37 -72
10 -14 18 -30 18 -36 0 -11 48 -103 61 -117 5 -5 9 -17 9 -26 0 -9 10 -19 23
-22 48 -11 146 -49 227 -89 326 -160 610 -443 777 -775 23 -45 46 -97 52 -115
5 -18 19 -60 31 -93 34 -92 62 -211 80 -342 19 -137 7 -379 -25 -513 -4 -14
-11 -45 -17 -70 -12 -53 -46 -157 -60 -183 -7 -13 -5 -24 6 -36 9 -10 16 -24
16 -33 0 -8 9 -27 20 -41 11 -14 20 -30 20 -35 0 -5 88 -186 195 -402 108
-216 197 -397 198 -404 2 -12 -60 -14 -108 -2 -16 3 -52 11 -80 16 -27 5 -61
12 -75 15 -14 3 -54 10 -90 16 -36 5 -74 12 -85 16 -11 3 -30 7 -42 9 -12 1
-36 6 -55 10 -18 4 -41 9 -50 10 -10 1 -19 3 -20 4 -2 1 -21 4 -43 5 -22 2
-41 4 -42 4 -2 1 -5 1 -8 1 -3 1 -22 7 -44 15 -22 7 -47 12 -57 11 -10 -2 -37
3 -61 10 -24 7 -43 11 -43 8 0 -3 -6 -2 -12 3 -7 4 -28 8 -45 8 -18 1 -36 4
-39 8 -17 17 -55 3 -129 -46 -86 -58 -224 -130 -277 -146 -18 -5 -60 -19 -93
-31 -92 -34 -211 -62 -342 -80 -209 -29 -499 3 -708 80 -33 12 -75 26 -94 32
-47 14 -201 95 -296 156 -80 51 -80 51 -130 40 -27 -5 -61 -12 -75 -14 -14 -2
-45 -8 -70 -13 -25 -6 -82 -17 -127 -25 -45 -8 -86 -17 -90 -19 -5 -3 -36 -8
-68 -11 -63 -6 -113 -15 -230 -42 -38 -9 -90 -20 -115 -24 -25 -4 -71 -14
-102 -21 -77 -18 -85 -8 -49 61 15 30 31 67 35 82 3 15 19 49 35 76 16 27 32
59 36 72 4 13 20 44 35 70 15 26 31 58 35 71 4 13 11 29 15 34 17 22 119 232
125 257 4 15 13 32 21 39 8 6 14 15 14 20 0 4 14 37 31 73 l31 66 -17 42 c-22
56 -40 112 -53 168 -6 25 -13 56 -17 70 -44 182 -44 478 0 660 4 14 11 45 17
70 13 58 46 160 58 182 6 10 10 24 10 31 0 7 21 54 46 106 169 343 452 626
795 795 52 25 101 46 109 46 9 0 20 4 26 8 5 5 35 17 66 26 l57 18 214 426
c258 516 245 492 257 492 5 0 17 -12 27 -27z"/>
<path d="M2380 3589 c-191 -31 -289 -62 -455 -146 -92 -47 -143 -82 -242 -165
-81 -69 -192 -192 -250 -278 -59 -88 -141 -263 -165 -350 -75 -278 -75 -502 0
-780 24 -87 106 -262 165 -350 87 -129 248 -290 377 -377 63 -42 190 -106 285
-143 103 -41 327 -80 455 -80 128 0 352 39 455 80 171 67 280 131 412 242 128
108 244 253 316 393 63 124 83 175 109 275 62 241 62 457 -1 700 -25 100 -45
151 -108 275 -72 140 -188 285 -316 393 -132 111 -239 174 -412 243 -159 62
-456 95 -625 68z"/>
</g>
</svg>
