<?xml version="1.0" standalone="no"?>
<!DOCTYPE svg PUBLIC "-//W3C//DTD SVG 20010904//EN"
 "http://www.w3.org/TR/2001/REC-SVG-20010904/DTD/svg10.dtd">
<svg version="1.0" xmlns="http://www.w3.org/2000/svg"
 width="768.000000pt" height="768.000000pt" viewBox="0 0 768.000000 768.000000"
 preserveAspectRatio="xMidYMid meet">
<metadata>
Created by potrace 1.16, written by Peter Selinger 2001-2019
</metadata>
<g transform="translate(0.000000,768.000000) scale(0.100000,-0.100000)"
fill="#000000" stroke="none">
<path d="M1564 6853 l-692 -3 -7 -638 c-8 -616 1 -2201 11 -2212 3 -2 93 85
201 195 107 110 322 330 477 488 339 347 569 577 590 589 9 5 16 13 16 18 0 5
29 39 65 75 47 47 70 63 80 58 8 -5 101 -93 207 -196 106 -103 202 -196 213
-207 11 -10 38 -36 60 -59 22 -22 116 -113 208 -203 93 -90 175 -175 183 -190
8 -16 20 -28 27 -28 6 0 159 -148 339 -328 l328 -328 -163 -169 c-129 -135
-490 -504 -718 -734 -235 -238 -660 -651 -669 -651 -6 0 -256 245 -556 545
-299 300 -548 545 -553 545 -4 0 -82 73 -172 163 l-164 162 -8 -440 c-8 -469
-2 -2464 9 -2474 9 -9 6031 -7 6041 2 9 10 11 6002 2 6012 -7 7 -4280 14
-5355 8z"/>
</g>
</svg>
