<?xml version="1.0" standalone="no"?>
<!DOCTYPE svg PUBLIC "-//W3C//DTD SVG 20010904//EN"
 "http://www.w3.org/TR/2001/REC-SVG-20010904/DTD/svg10.dtd">
<svg version="1.0" xmlns="http://www.w3.org/2000/svg"
 width="768.000000pt" height="768.000000pt" viewBox="0 0 768.000000 768.000000"
 preserveAspectRatio="xMidYMid meet">
<metadata>
Created by potrace 1.16, written by Peter Selinger 2001-2019
</metadata>
<g transform="translate(0.000000,768.000000) scale(0.100000,-0.100000)"
fill="#000000" stroke="none">
<path d="M3545 6784 c-16 -2 -70 -9 -120 -15 -437 -52 -888 -220 -1260 -469
-323 -217 -633 -526 -837 -835 -392 -596 -556 -1289 -472 -2003 94 -804 517
-1535 1172 -2027 998 -750 2377 -789 3424 -96 175 116 287 208 454 375 180
181 258 274 379 456 332 498 495 1041 495 1650 0 496 -104 929 -329 1366 -146
283 -305 500 -540 735 -246 246 -469 407 -771 558 -300 149 -549 228 -915 288
-85 14 -605 27 -680 17z m725 -549 c135 -20 322 -66 430 -105 47 -17 99 -35
117 -41 46 -14 307 -147 382 -194 134 -84 305 -221 424 -339 205 -204 338
-389 465 -646 112 -228 166 -387 219 -650 27 -130 28 -147 27 -440 0 -305 -2
-330 -41 -505 -22 -100 -73 -284 -88 -320 -8 -16 -23 -57 -36 -90 -31 -85
-121 -264 -177 -354 -217 -351 -520 -646 -875 -850 -336 -194 -747 -312 -1097
-315 l-145 -1 -3 2415 c-1 1328 0 2426 3 2439 l6 24 142 -6 c78 -3 189 -13
247 -22z"/>
</g>
</svg>
