<?xml version="1.0" standalone="no"?>
<!DOCTYPE svg PUBLIC "-//W3C//DTD SVG 20010904//EN"
 "http://www.w3.org/TR/2001/REC-SVG-20010904/DTD/svg10.dtd">
<svg version="1.0" xmlns="http://www.w3.org/2000/svg"
 width="512.000000pt" height="512.000000pt" viewBox="0 0 512.000000 512.000000"
 preserveAspectRatio="xMidYMid meet">
<metadata>
Created by potrace 1.15, written by Peter Selinger 2001-2017
</metadata>
<g transform="translate(0.000000,512.000000) scale(0.100000,-0.100000)"
fill="#000000" stroke="none">
<path d="M2328 4918 c-155 -90 -228 -138 -232 -152 -3 -12 -6 -650 -6 -1418 0
-1162 2 -1399 14 -1410 7 -8 113 -71 235 -142 l221 -128 221 128 c122 71 228
134 235 142 12 11 14 248 14 1410 0 768 -3 1406 -6 1418 -4 14 -77 62 -233
152 -125 73 -230 132 -232 132 -2 0 -106 -60 -231 -132z"/>
<path d="M1068 4191 l-668 -386 0 -1245 0 -1245 1080 -623 1080 -624 1080 624
1080 623 0 1245 0 1245 -670 386 c-498 288 -670 383 -674 372 -3 -8 -6 -220
-6 -472 l0 -457 163 -94 c89 -51 182 -105 207 -120 25 -15 68 -40 96 -56 l52
-28 7 -213 c4 -117 6 -463 3 -768 -3 -470 -6 -557 -18 -569 -8 -8 -42 -30 -75
-49 -33 -18 -136 -78 -230 -132 -380 -220 -529 -305 -533 -305 -2 0 -16 -8
-30 -19 -15 -10 -47 -30 -72 -43 -25 -14 -88 -50 -140 -80 -52 -31 -128 -74
-168 -97 l-73 -42 -50 30 c-27 17 -51 31 -53 31 -2 0 -55 30 -117 66 -122 72
-217 126 -426 247 -289 167 -398 230 -525 303 -73 42 -140 82 -148 90 -12 12
-15 114 -17 681 -2 368 0 713 4 768 l8 99 252 146 252 145 1 478 c0 262 -1
477 -2 476 -2 -1 -303 -175 -670 -388z"/>
</g>
</svg>
