<?xml version="1.0" standalone="no"?>
<!DOCTYPE svg PUBLIC "-//W3C//DTD SVG 20010904//EN"
 "http://www.w3.org/TR/2001/REC-SVG-20010904/DTD/svg10.dtd">
<svg version="1.0" xmlns="http://www.w3.org/2000/svg"
 width="512.000000pt" height="512.000000pt" viewBox="0 0 512.000000 512.000000"
 preserveAspectRatio="xMidYMid meet">
<metadata>
Created by potrace 1.16, written by Peter Selinger 2001-2019
</metadata>
<g transform="translate(0.000000,512.000000) scale(0.100000,-0.100000)"
fill="#000000" stroke="none">
<path d="M2515 5046 c-11 -8 -479 -278 -1040 -601 -561 -323 -1037 -598 -1058
-611 l-37 -24 0 -1249 c0 -987 3 -1251 13 -1259 37 -31 2151 -1242 2167 -1242
16 0 2130 1211 2168 1242 18 15 18 2501 0 2516 -12 9 -1722 997 -2018 1165
-75 42 -145 77 -155 76 -11 0 -29 -6 -40 -13z m243 -460 c420 -243 522 -302
567 -327 28 -15 136 -76 240 -137 242 -140 449 -260 643 -372 84 -48 161 -95
172 -105 20 -18 20 -36 20 -1075 0 -829 -3 -1060 -12 -1073 -7 -9 -60 -43
-118 -75 -101 -57 -283 -162 -569 -329 -74 -43 -160 -92 -190 -109 -59 -33
-109 -62 -476 -274 -341 -198 -399 -230 -412 -230 -10 0 -13 425 -13 2090 0
1447 3 2090 10 2090 6 0 68 -33 138 -74z"/>
</g>
</svg>
